<?xml version="1.0" encoding="utf-8"?>
<!-- Generator: Adobe Illustrator 26.5.0, SVG Export Plug-In . SVG Version: 6.00 Build 0)  -->
<svg version="1.1" id="Ebene_1" xmlns="http://www.w3.org/2000/svg" xmlns:xlink="http://www.w3.org/1999/xlink" x="0px" y="0px"
	 viewBox="0 0 500 507" style="enable-background:new 0 0 500 507;" xml:space="preserve">
<style type="text/css">
	.st0{fill:#FFFFFF;stroke:#000000;stroke-width:2;stroke-miterlimit:10;}
	.st1{fill:#E30613;stroke:#000000;stroke-miterlimit:10;}
	.st2{fill:#FFFFFF;stroke:#000000;stroke-miterlimit:10;}
	.st3{fill:#FFFFFF;stroke:#000000;stroke-width:10;stroke-miterlimit:10;}
	.st4{font-family:'Krungthep';}
	.st5{font-size:90.033px;}
</style>
<rect x="6.66" y="11" class="st0" width="486.68" height="496"/>
<path class="st1" d="M594.37,276.21l-722.19,10.81c-20.41,11.42,19.97,10.36,19.97,10.36l-25.06,6.38l-14.52,8.05l29.9,0.04
	l-29.34,9.18l804.64-14.41c65.89-15.56,2.33-19.58,2.33-19.58l33.17-6.17l-37.17-1.92l4.91-6.08l-21.03,1.27L594.37,276.21z"/>
<path class="st2" d="M267,11"/>
<path class="st3" d="M44.88,150.53c3.87,1.9,1.41,8.3,7.38,15.01c2.32,2.61,4.74,3.95,6.64,5c3.02,1.67,11.38,6.31,18.45,3.57
	c5.67-2.19,5.15-7.04,11.81-9.29c3.87-1.31,4.52,0.17,8.86-0.71c6.42-1.31,8.57-5.29,17.71-12.87c8.59-7.13,8.35-4.99,12.55-9.29
	c8.66-8.88,6.43-14.65,13.28-18.59c5.42-3.11,13.41-3.28,18.45,0c5.03,3.28,3.58,7.71,8.86,10.72c5.82,3.31,10.21-0.57,14.02,2.86
	c3.28,2.95,3.1,8.62,2.95,13.58c-0.18,5.73-1.59,6.37-0.74,9.29c1.49,5.1,6.59,5.89,10.33,10.01c4.75,5.23,1.88,9.9,3.69,20.02
	c2.71,15.15,10.85,16.66,11.81,27.88c1.02,11.91-7.79,22.27-8.86,23.59c-5.16,6.38-9.1,6.91-11.81,13.58
	c-0.69,1.69-3.18,8.44-0.74,15.73c1.94,5.76,5.02,6.06,7.38,11.44c2.7,6.15,0.25,9.37,0,18.59c-0.42,15.41,6.14,16.78,4.43,28.59
	c-1.02,7.06-3.17,5.25-8.12,19.3c-3.4,9.65-5.77,16.62-5.17,25.73c0.37,5.59,0.68,10.14,2.95,15.73c1.77,4.35,3.41,6.06,2.95,9.29
	c-0.63,4.42-4.63,7.79-8.12,9.29c-1.24,0.53-5.18,2.23-8.86,0.71c-2.84-1.17-3.76-3.52-5.9-7.15c-4.16-7.05-8.46-14.32-14.02-15.01
	c-4.01-0.49-4.88,2.9-10.33,2.86c-6.09-0.04-7.58-4.3-11.07-3.57c-5.81,1.21-9.29,14.62-8.86,25.73c0.34,8.88,2.98,11.2,0.74,15.73
	c-3.22,6.49-13.04,10.57-18.45,7.86c-4.63-2.32-3.71-8.45-7.38-9.29c-5.25-1.2-10.91,10.49-14.02,9.29
	c-3.39-1.3,2.61-15.41-3.69-20.73c-3.71-3.13-7.61,0.22-13.28-2.86c-7.87-4.27-9.22-15.5-9.59-18.59
	c-1.31-10.92,3.84-12.09,2.95-22.16c-1.14-12.84-10.01-16.46-7.38-23.59c2.23-6.04,9.02-4.58,14.76-12.87
	c1.1-1.59,5.67-8.6,4.43-16.44c-1.91-12.09-15.55-13.08-16.97-23.59c-1.17-8.62,7.72-10.03,9.59-22.16
	c1.45-9.41-3.61-10.34-8.12-30.74c-3.21-14.52-1.46-17.79-5.9-22.16c-3.44-3.39-5.65-2.58-19.19-10.01
	c-8.03-4.41-10.02-6.21-10.33-8.58c-0.4-3,2.22-4.4,6.64-10.72c4.72-6.75,7.37-10.55,7.38-15.01c0.02-8.4-9.36-11.01-8.12-17.16
	C31.96,152.9,40.74,148.49,44.88,150.53z"/>
<path class="st1" d="M243.81-43.3L211,678.23c10.17,21.07,11.55-19.31,11.55-19.31l4.85,25.4l7.16,14.98l1.85-29.84l7.39,29.84
	L278-104.75c-11.55-66.71-19.41-3.51-19.41-3.51l-4.16-33.48l-4.16,36.99l-5.78-5.27v21.07L243.81-43.3z"/>
<text transform="matrix(1.0803 0 0 1 228.6582 303.2886)" class="st4 st5">.COM</text>
</svg>
