<?xml version="1.0" encoding="utf-8"?>
<!-- Generator: Adobe Illustrator 26.5.0, SVG Export Plug-In . SVG Version: 6.00 Build 0)  -->
<svg version="1.1" id="Ebene_1" xmlns="http://www.w3.org/2000/svg" xmlns:xlink="http://www.w3.org/1999/xlink" x="0px" y="0px"
	 viewBox="0 0 45.51 1.18" style="enable-background:new 0 0 45.51 1.18;" xml:space="preserve">
<style type="text/css">
	.st0{fill:#FFFFFF;stroke:#000000;stroke-width:10;stroke-miterlimit:10;}
</style>
<path class="st0" d="M-223,114.87c4.24,2.03,1.55,8.86,8.09,16.04c2.54,2.79,5.19,4.22,7.28,5.35c3.31,1.79,12.47,6.74,20.23,3.82
	c6.21-2.34,5.65-7.52,12.94-9.93c4.24-1.4,4.96,0.18,9.71-0.76c7.04-1.4,9.4-5.65,19.42-13.75c9.42-7.62,9.16-5.33,13.75-9.93
	c9.49-9.49,7.05-15.66,14.56-19.86c5.95-3.33,14.71-3.51,20.23,0c5.52,3.51,3.92,8.24,9.71,11.46c6.38,3.54,11.2-0.61,15.37,3.06
	c3.59,3.16,3.4,9.21,3.24,14.51c-0.19,6.12-1.74,6.8-0.81,9.93c1.63,5.45,7.23,6.3,11.33,10.69c5.21,5.59,2.06,10.58,4.05,21.39
	c2.97,16.19,11.89,17.8,12.94,29.79c1.12,12.73-8.54,23.8-9.71,25.21c-5.65,6.81-9.98,7.38-12.94,14.51
	c-0.75,1.81-3.49,9.02-0.81,16.8c2.12,6.16,5.5,6.47,8.09,12.22c2.96,6.57,0.28,10.01,0,19.86c-0.46,16.46,6.73,17.93,4.85,30.55
	c-1.12,7.54-3.48,5.61-8.9,20.62c-3.72,10.31-6.33,17.76-5.66,27.5c0.41,5.98,0.74,10.84,3.24,16.8c1.94,4.65,3.74,6.48,3.24,9.93
	c-0.69,4.72-5.08,8.33-8.9,9.93c-1.36,0.57-5.67,2.38-9.71,0.76c-3.11-1.25-4.12-3.76-6.47-7.64c-4.57-7.54-9.27-15.31-15.37-16.04
	c-4.4-0.53-5.35,3.1-11.33,3.06c-6.68-0.05-8.31-4.59-12.14-3.82c-6.37,1.29-10.18,15.62-9.71,27.5c0.38,9.49,3.27,11.97,0.81,16.8
	c-3.53,6.93-14.3,11.29-20.23,8.4c-5.08-2.48-4.07-9.03-8.09-9.93c-5.75-1.29-11.96,11.2-15.37,9.93
	c-3.71-1.39,2.86-16.47-4.05-22.15c-4.06-3.34-8.34,0.23-14.56-3.06c-8.63-4.56-10.11-16.56-10.52-19.86
	c-1.44-11.67,4.21-12.92,3.24-23.68c-1.25-13.72-10.98-17.59-8.09-25.21c2.45-6.45,9.89-4.9,16.18-13.75
	c1.2-1.69,6.21-9.19,4.85-17.57c-2.09-12.92-17.05-13.98-18.61-25.21c-1.28-9.21,8.47-10.71,10.52-23.68
	c1.59-10.05-3.96-11.05-8.9-32.85c-3.52-15.52-1.61-19.01-6.47-23.68c-3.77-3.62-6.2-2.75-21.03-10.69
	c-8.81-4.71-10.98-6.64-11.33-9.17c-0.44-3.2,2.44-4.7,7.28-11.46c5.17-7.21,8.08-11.27,8.09-16.04c0.02-8.98-10.26-11.76-8.9-18.33
	C-237.16,117.41-227.54,112.69-223,114.87z"/>
<g>
	<g>
		<path d="M2.39,381.57c-3.39,0-5.91-0.75-7.55-2.24c-1.64-1.5-2.46-3.34-2.46-5.55c0-2.29,0.9-4.25,2.71-5.88
			c1.81-1.63,4.29-2.44,7.46-2.44c3.28,0,5.82,0.84,7.63,2.51c1.81,1.67,2.71,3.65,2.71,5.94c0,2.03-0.91,3.81-2.71,5.35
			C8.38,380.8,5.79,381.57,2.39,381.57z"/>
		<path d="M92.6,360.98l3.22,1.85c-2.15,3.52-4.61,6.73-7.38,9.64c-2.77,2.9-6.19,5.19-10.26,6.87c-4.07,1.67-9.16,2.51-15.26,2.51
			c-7.01,0-13.06-1.32-18.14-3.96s-8.99-6.31-11.7-11.02c-2.71-4.71-4.07-10.1-4.07-16.17c0-6.95,1.5-12.98,4.49-18.09
			c2.99-5.1,7.35-9.06,13.06-11.88c5.71-2.82,12.63-4.23,20.77-4.23c8.03,0,14.33,1.37,18.91,4.09c4.58,2.73,6.87,6.03,6.87,9.9
			c0,1.94-0.59,3.41-1.78,4.42c-1.19,1.01-2.97,1.52-5.34,1.52c-2.49,0-4.38-0.51-5.68-1.52c-1.3-1.01-2.35-2.27-3.14-3.76
			c-0.79-1.5-1.61-2.99-2.46-4.49c-0.85-1.5-2.03-2.75-3.56-3.76c-1.53-1.01-3.76-1.52-6.7-1.52c-6.9,0-12.29,1.96-16.19,5.88
			c-3.9,3.92-5.85,9.66-5.85,17.23c0,8.01,2.12,14.59,6.36,19.74c4.24,5.15,10.71,7.72,19.42,7.72c5.54,0,10.03-0.88,13.48-2.64
			C85.11,367.54,88.76,364.76,92.6,360.98z"/>
		<path d="M142.79,381.84c-11.87,0-21.17-2.88-27.89-8.65c-6.73-5.76-10.09-13.97-10.09-24.62c0-6.42,1.58-12.04,4.75-16.83
			c3.16-4.8,7.6-8.54,13.31-11.22c5.71-2.68,12.35-4.03,19.92-4.03c11.64,0,20.83,2.82,27.55,8.45
			c6.72,5.63,10.09,13.34,10.09,23.11c0,7.39-1.61,13.6-4.83,18.62c-3.22,5.02-7.66,8.8-13.31,11.35
			C156.64,380.56,150.14,381.84,142.79,381.84z M143.47,376.56c4.63,0,8.53-0.84,11.7-2.51c3.16-1.67,5.57-4.53,7.21-8.58
			c1.64-4.05,2.46-9.64,2.46-16.77c0-8.1-1.89-14.66-5.68-19.67c-3.79-5.02-9.47-7.53-17.04-7.53c-6.44,0-11.64,2.11-15.6,6.34
			c-3.96,4.23-5.93,10.56-5.93,19.01c0,10.48,2,18.07,6.02,22.78C130.61,374.34,136.24,376.65,143.47,376.56z"/>
		<path d="M230.29,380.52h-38.66v-3.83c3.62,0,6.25-0.24,7.88-0.73c1.64-0.48,2.71-1.41,3.22-2.77c0.51-1.36,0.76-3.37,0.76-6.01
			v-36.97c0-2.38-0.59-3.96-1.78-4.75c-1.19-0.79-2.97-1.19-5.34-1.19c-1.25,0-2.77,0.09-4.58,0.26v-3.83l21.2-3.83h4.07v12.15
			l0.51,2.9v35.78c0,2.47,0.34,4.34,1.02,5.61c0.68,1.28,1.92,2.16,3.73,2.64c1.81,0.48,4.46,0.73,7.97,0.73V380.52z M279.46,380.52
			h-40.19v-3.83c4.07,0,7.01-0.31,8.82-0.92c1.81-0.61,2.97-1.76,3.48-3.43c0.51-1.67,0.76-4.05,0.76-7.13v-26.14
			c0-5.63-1.27-9.4-3.82-11.29c-2.54-1.89-5.79-2.84-9.75-2.84c-3.17,0-6.13,0.53-8.9,1.58c-2.77,1.06-5.29,2.29-7.55,3.7
			c-2.26,1.41-4.18,2.73-5.76,3.96l-1.36-6.6h2.54c4.63-3.08,9.1-5.7,13.4-7.86c4.29-2.16,9.33-3.23,15.09-3.23
			c5.09,0,9.18,1.15,12.29,3.43c3.11,2.29,5.45,5.15,7.04,8.58c0.23,0.26,0.39,0.55,0.51,0.86c0.11,0.31,0.23,0.64,0.34,0.99v34.86
			c0,2.99,0.25,5.33,0.76,7c0.51,1.67,1.67,2.84,3.48,3.5c1.81,0.66,4.75,0.99,8.82,0.99V380.52z M326.77,380.52h-38.32v-3.83
			c3.84,0,6.61-0.4,8.31-1.19c1.7-0.79,2.74-2.05,3.14-3.76c0.39-1.72,0.59-3.9,0.59-6.54v-25.35c0-4.05-0.65-7.13-1.95-9.24
			c-1.3-2.11-3.05-3.59-5.26-4.42c-2.2-0.84-4.66-1.25-7.38-1.25c-3.73,0-7.41,1.04-11.02,3.1c-3.62,2.07-6.9,4.07-9.83,6.01
			l-1.87-6.6h2.54c4.63-3.61,9.16-6.34,13.56-8.19c4.41-1.85,8.87-2.77,13.4-2.77c6.67,0,11.98,1.63,15.94,4.89
			c3.96,3.26,5.93,8.89,5.93,16.9v26.94c0,2.73,0.2,4.95,0.59,6.67c0.39,1.72,1.47,2.95,3.22,3.7c1.75,0.75,4.55,1.12,8.39,1.12
			V380.52z"/>
	</g>
</g>
</svg>
