<?xml version="1.0" encoding="utf-8"?>
<!-- Generator: Adobe Illustrator 26.5.0, SVG Export Plug-In . SVG Version: 6.00 Build 0)  -->
<svg version="1.1" id="Ebene_1" xmlns="http://www.w3.org/2000/svg" xmlns:xlink="http://www.w3.org/1999/xlink" x="0px" y="0px"
	 viewBox="0 0 490.57 472.2" style="enable-background:new 0 0 490.57 472.2;" xml:space="preserve">
<style type="text/css">
	.st0{fill:#36A9E1;stroke:#000000;stroke-width:2;stroke-miterlimit:10;}
	.st1{fill:none;}
	.st2{fill:#F6F6F6;}
	.st3{font-family:'Kavivanar-Regular';}
	.st4{font-size:60px;}
	.st5{fill:#F6F6F6;stroke:#000000;stroke-width:2;stroke-miterlimit:10;}
	.st6{fill:#E30613;stroke:#020203;stroke-width:2;stroke-linecap:round;stroke-linejoin:round;}
</style>
<rect x="11.22" y="10.2" class="st0" width="479.35" height="462"/>
<rect x="24.24" y="51.41" class="st1" width="393.88" height="184.69"/>
<text transform="matrix(1 0 0 1 24.2451 101.6975)"><tspan x="0" y="0" class="st2 st3 st4">Gefällt ihnen </tspan><tspan x="0" y="72" class="st2 st3 st4">diese Seite?</tspan></text>
<path class="st5" d="M428.25,396.2H166.16c-6.6,0-12-5.4-12-12v-50.49c0-6.6,5.4-12,12-12h262.09c6.6,0,12,5.4,12,12v50.49
	C440.25,390.8,434.85,396.2,428.25,396.2z"/>
<path class="st6" d="M394.96,361.87l-14.59,14.45l-14.59-14.45 M365.78,361.87c-3.85-3.75-3.93-9.9-0.19-13.75
	c3.75-3.85,9.9-3.93,13.75-0.19c0.37,0.36,0.71,0.75,1.02,1.17c3.23-4.29,9.33-5.16,13.62-1.93c4.29,3.23,5.16,9.33,1.93,13.62
	c-0.29,0.39-0.61,0.75-0.96,1.09"/>
<g>
	<g>
		<path class="st2" d="M64.44,221.76c0-6.17,0.04-12.06,0.18-15.21h-0.14c-1.26,4.23-7.65,19.75-11.65,29.7h-2.39
			c-3.01-7.69-9.63-24.97-11.07-29.74h-0.09c0.22,3.6,0.31,10.93,0.31,16.33v13.41h-2.43v-31.5h3.65
			c4.32,10.8,9.76,24.93,10.93,28.48h0.09c0.72-2.29,7.02-18,11.43-28.48h3.6v31.5h-2.43V221.76z"/>
		<path class="st2" d="M90.4,231.98c0,1.98,0.18,3.55,0.31,4.27h-2.16c-0.18-0.54-0.31-1.53-0.4-3.46c-0.77,1.67-2.75,4-7.38,4
			c-5.22,0-7.47-3.38-7.47-6.75c0-4.95,3.82-7.2,10.57-7.2c1.89,0,3.37,0,4.27,0v-2.29c0-2.25-0.68-5.26-5.81-5.26
			c-4.54,0-5.22,2.38-5.71,4.23h-2.25c0.27-2.47,1.8-6.3,8.01-6.3c5.13,0,8.01,2.16,8.01,7.11V231.98z M88.2,224.78
			c-0.85,0-2.92,0-4.41,0c-4.99,0-8.1,1.3-8.1,5.17c0,2.83,2.02,4.77,5.17,4.77c6.44,0,7.33-4.27,7.33-9.13V224.78z"/>
		<path class="st2" d="M114.39,229.64c-1.08,3.96-3.69,7.15-8.73,7.15c-5.62,0-9.63-4.18-9.63-11.7c0-6.17,3.28-11.88,9.9-11.88
			c5.71,0,8.05,4.05,8.46,7.2h-2.29c-0.67-2.61-2.38-5.08-6.21-5.08c-4.77,0-7.47,4.05-7.47,9.67c0,5.36,2.52,9.67,7.24,9.67
			c3.28,0,5.26-1.67,6.43-5.04H114.39z"/>
		<path class="st2" d="M121.86,203.09v14.45c1.26-2.34,3.46-4.32,7.42-4.32c3.19,0,7.6,1.62,7.6,8.73v14.31h-2.25v-13.86
			c0-4.46-2.02-6.97-5.76-6.97c-4.45,0-7.02,2.75-7.02,8.28v12.55h-2.25v-33.16H121.86z"/>
		<path class="st2" d="M144.76,225.27c0.04,5.8,2.97,9.4,7.29,9.4c4.23,0,5.67-2.38,6.48-4.23h2.29c-0.94,2.97-3.33,6.34-8.86,6.34
			c-6.84,0-9.49-5.89-9.49-11.61c0-6.43,3.19-11.97,9.76-11.97c6.93,0,9.13,5.98,9.13,10.21c0,0.63,0,1.26-0.04,1.84H144.76z
			 M159.03,223.29c-0.04-4.46-2.48-7.96-6.88-7.96c-4.63,0-6.75,3.24-7.24,7.96H159.03z"/>
		<path class="st2" d="M166.86,219.42c0-1.98,0-3.87-0.04-5.67h2.2c0.09,0.72,0.14,3.64,0.09,4.27c0.99-2.29,2.83-4.81,7.47-4.81
			c4,0,7.56,2.25,7.56,8.46v14.58h-2.25v-14.22c0-4-1.67-6.61-5.58-6.61c-5.35,0-7.2,4.46-7.2,9.36v11.47h-2.25V219.42z"/>
		<path class="st2" d="M204.16,227.79c0.94,4.19,3.73,6.66,8.91,6.66c5.76,0,7.96-2.88,7.96-6.3c0-3.55-1.58-5.76-8.5-7.47
			c-6.66-1.67-9.54-3.83-9.54-8.37c0-4.14,3.01-8.01,9.76-8.01c6.93,0,9.85,4.23,10.26,8.05h-2.52c-0.72-3.38-2.92-5.81-7.88-5.81
			c-4.54,0-7.02,2.12-7.02,5.62c0,3.46,2.07,4.82,7.87,6.25c8.86,2.21,10.17,5.76,10.17,9.54c0,4.63-3.38,8.64-10.66,8.64
			c-7.88,0-10.75-4.59-11.34-8.82H204.16z"/>
		<path class="st2" d="M229.63,203.09h2.25v4.37h-2.25V203.09z M229.63,213.75h2.25v22.5h-2.25V213.75z"/>
		<path class="st2" d="M239.76,225.27c0.04,5.8,2.97,9.4,7.29,9.4c4.23,0,5.67-2.38,6.48-4.23h2.29c-0.94,2.97-3.33,6.34-8.86,6.34
			c-6.84,0-9.49-5.89-9.49-11.61c0-6.43,3.19-11.97,9.76-11.97c6.93,0,9.13,5.98,9.13,10.21c0,0.63,0,1.26-0.04,1.84H239.76z
			 M254.02,223.29c-0.04-4.46-2.48-7.96-6.88-7.96c-4.63,0-6.75,3.24-7.24,7.96H254.02z"/>
		<path class="st2" d="M290.92,203.09v26.68c0,2.16,0,4.23,0.04,6.48h-2.16c-0.09-0.54-0.14-2.66-0.14-3.78
			c-1.12,2.75-3.64,4.32-7.56,4.32c-5.85,0-9.36-4.77-9.36-11.52c0-6.93,3.82-12.06,9.94-12.06c4.5,0,6.3,1.93,6.97,3.38v-13.5
			H290.92z M274.14,225.18c0,6.16,3.19,9.49,7.06,9.49c5.94,0,7.56-4.09,7.56-10.21c0-5.81-1.4-9.13-7.15-9.13
			C277.15,215.33,274.14,218.88,274.14,225.18z"/>
		<path class="st2" d="M298.8,225.27c0.04,5.8,2.97,9.4,7.29,9.4c4.23,0,5.67-2.38,6.48-4.23h2.29c-0.94,2.97-3.33,6.34-8.86,6.34
			c-6.84,0-9.49-5.89-9.49-11.61c0-6.43,3.19-11.97,9.76-11.97c6.93,0,9.13,5.98,9.13,10.21c0,0.63,0,1.26-0.04,1.84H298.8z
			 M313.06,223.29c-0.04-4.46-2.48-7.96-6.88-7.96c-4.63,0-6.75,3.24-7.24,7.96H313.06z"/>
		<path class="st2" d="M320.89,219.42c0-1.98,0-3.87-0.04-5.67h2.2c0.09,0.72,0.14,3.64,0.09,4.27c0.99-2.29,2.83-4.81,7.47-4.81
			c4,0,7.56,2.25,7.56,8.46v14.58h-2.25v-14.22c0-4-1.67-6.61-5.58-6.61c-5.35,0-7.2,4.46-7.2,9.36v11.47h-2.25V219.42z"/>
		<path class="st2" d="M39.51,258.75v19.08c0,8.37,4.73,10.53,9.18,10.53c5.27,0,9.18-2.21,9.18-10.53v-19.08h2.48v18.94
			c0,9.85-5.22,12.92-11.74,12.92c-6.21,0-11.61-3.38-11.61-12.51v-19.35H39.51z"/>
		<path class="st2" d="M68.26,273.42c0-1.98,0-3.87-0.04-5.67h2.2c0.09,0.72,0.14,3.64,0.09,4.27c0.99-2.29,2.83-4.81,7.47-4.81
			c4,0,7.56,2.25,7.56,8.46v14.58h-2.25v-14.22c0-4-1.67-6.61-5.58-6.61c-5.35,0-7.2,4.46-7.2,9.36v11.47h-2.25V273.42z"/>
		<path class="st2" d="M89.55,267.75h4.19v-7.02h2.25v7.02h5.35v2.12h-5.35v14.62c0,2.52,0.54,3.96,2.7,3.96
			c0.67,0,1.62-0.04,2.34-0.27v1.98c-0.77,0.31-1.84,0.41-2.79,0.41c-2.88,0-4.5-1.44-4.5-5.04v-15.66h-4.19V267.75z"/>
		<path class="st2" d="M106.42,279.27c0.04,5.8,2.97,9.4,7.29,9.4c4.23,0,5.67-2.38,6.48-4.23h2.29c-0.94,2.97-3.33,6.34-8.86,6.34
			c-6.84,0-9.49-5.89-9.49-11.61c0-6.43,3.19-11.97,9.76-11.97c6.93,0,9.13,5.98,9.13,10.21c0,0.63,0,1.26-0.04,1.84H106.42z
			 M120.69,277.29c-0.04-4.46-2.48-7.96-6.88-7.96c-4.63,0-6.75,3.24-7.24,7.96H120.69z"/>
		<path class="st2" d="M128.52,273.87c0-3.78-0.04-5.4-0.04-6.12h2.2c0.04,0.72,0.09,2.16,0.09,5.04c1.3-3.38,4.18-5.4,7.83-5.58
			v2.43c-4.68,0.32-7.83,3.55-7.83,8.91v11.7h-2.25V273.87z"/>
		<path class="st2" d="M143.1,284.04c0.76,2.92,2.83,4.68,6.39,4.68c4,0,5.62-1.84,5.62-4.36c0-2.57-1.08-3.83-6.12-5.04
			c-5.8-1.39-7.24-3.15-7.24-6.12c0-3.1,2.34-5.98,7.42-5.98s7.51,3.1,7.87,6.3h-2.25c-0.4-1.89-1.89-4.23-5.71-4.23
			c-3.92,0-5.04,1.93-5.04,3.73c0,2.07,1.08,3.1,5.53,4.18c6.34,1.53,7.92,3.6,7.92,6.97c0,4.1-3.33,6.62-8.05,6.62
			c-5.13,0-8.01-2.7-8.64-6.75H143.1z"/>
		<path class="st2" d="M179.64,283.64c-1.08,3.96-3.69,7.15-8.73,7.15c-5.62,0-9.63-4.18-9.63-11.7c0-6.17,3.28-11.88,9.9-11.88
			c5.71,0,8.05,4.05,8.46,7.2h-2.29c-0.67-2.61-2.38-5.08-6.21-5.08c-4.77,0-7.47,4.05-7.47,9.67c0,5.36,2.52,9.67,7.24,9.67
			c3.28,0,5.26-1.67,6.43-5.04H179.64z"/>
		<path class="st2" d="M187.11,257.09v14.45c1.26-2.34,3.46-4.32,7.42-4.32c3.19,0,7.6,1.62,7.6,8.73v14.31h-2.25v-13.86
			c0-4.46-2.02-6.97-5.76-6.97c-4.45,0-7.02,2.75-7.02,8.28v12.55h-2.25v-33.16H187.11z"/>
		<path class="st2" d="M209.52,257.09h2.25v4.37h-2.25V257.09z M209.52,267.75h2.25v22.5h-2.25V267.75z"/>
		<path class="st2" d="M219.64,279.27c0.04,5.8,2.97,9.4,7.29,9.4c4.23,0,5.67-2.38,6.48-4.23h2.29c-0.94,2.97-3.33,6.34-8.86,6.34
			c-6.84,0-9.49-5.89-9.49-11.61c0-6.43,3.19-11.97,9.76-11.97c6.93,0,9.13,5.98,9.13,10.21c0,0.63,0,1.26-0.04,1.84H219.64z
			 M233.91,277.29c-0.04-4.46-2.48-7.96-6.88-7.96c-4.63,0-6.75,3.24-7.24,7.96H233.91z"/>
		<path class="st2" d="M259.1,257.09v26.68c0,2.16,0,4.23,0.04,6.48h-2.16c-0.09-0.54-0.14-2.66-0.14-3.78
			c-1.12,2.75-3.64,4.32-7.56,4.32c-5.85,0-9.36-4.77-9.36-11.52c0-6.93,3.82-12.06,9.94-12.06c4.5,0,6.3,1.93,6.97,3.38v-13.5
			H259.1z M242.32,279.18c0,6.16,3.19,9.49,7.06,9.49c5.94,0,7.56-4.09,7.56-10.21c0-5.81-1.4-9.13-7.15-9.13
			C245.34,269.33,242.32,272.88,242.32,279.18z"/>
		<path class="st2" d="M269.64,280.17l-0.23-15.84v-5.58h2.48v5.58l-0.23,15.84H269.64z M269.46,290.3v-5.35h2.29v5.35H269.46z"/>
	</g>
</g>
<g>
	<g>
		<path d="M175.33,363.83c1.05,4.65,4.15,7.4,9.9,7.4c6.4,0,8.85-3.2,8.85-7c0-3.95-1.75-6.4-9.45-8.3c-7.4-1.85-10.6-4.25-10.6-9.3
			c0-4.6,3.35-8.9,10.85-8.9c7.7,0,10.95,4.7,11.4,8.95h-2.8c-0.8-3.75-3.25-6.45-8.75-6.45c-5.05,0-7.8,2.35-7.8,6.25
			c0,3.85,2.3,5.35,8.75,6.95c9.85,2.45,11.3,6.4,11.3,10.6c0,5.15-3.75,9.6-11.85,9.6c-8.75,0-11.95-5.1-12.6-9.8H175.33z"/>
		<path d="M206.13,369.53v13.7h-2.5v-28.85c0-2.05,0-4.25-0.05-6.15h2.45c0.1,0.95,0.1,2.45,0.1,4.5c1.55-3,4.3-5.1,8.8-5.1
			c5.9,0,10,4.95,10,12.45c0,9-4.8,13.75-10.85,13.75C209.68,373.83,207.38,371.88,206.13,369.53z M222.28,360.18
			c0-5.8-2.8-10.15-7.75-10.15c-6.05,0-8.55,3.8-8.55,10.6c0,6.7,1.95,10.85,8.2,10.85C219.38,371.48,222.28,367.08,222.28,360.18z"
			/>
		<path d="M251.43,360.68c0,6.95-3.85,13.15-11.3,13.15c-6.75,0-10.95-5.55-10.95-13.1c0-7.15,3.95-13.1,11.2-13.1
			C247.03,347.62,251.43,352.82,251.43,360.68z M231.83,360.73c0,5.95,3.2,10.75,8.5,10.75c5.4,0,8.45-4.45,8.45-10.75
			c0-5.9-3-10.75-8.55-10.75C234.53,349.98,231.83,354.73,231.83,360.73z"/>
		<path d="M257.62,354.52c0-2.2,0-4.3-0.05-6.3h2.45c0.1,0.8,0.15,4.05,0.1,4.75c1.1-2.55,3.15-5.35,8.3-5.35
			c4.45,0,8.4,2.5,8.4,9.4v16.2h-2.5v-15.8c0-4.45-1.85-7.35-6.2-7.35c-5.95,0-8,4.95-8,10.4v12.75h-2.5V354.52z"/>
		<path d="M285.02,366.33c0.85,3.25,3.15,5.2,7.1,5.2c4.45,0,6.25-2.05,6.25-4.85c0-2.85-1.2-4.25-6.8-5.6
			c-6.45-1.55-8.05-3.5-8.05-6.8c0-3.45,2.6-6.65,8.25-6.65s8.35,3.45,8.75,7h-2.5c-0.45-2.1-2.1-4.7-6.35-4.7
			c-4.35,0-5.6,2.15-5.6,4.15c0,2.3,1.2,3.45,6.15,4.65c7.05,1.7,8.8,4,8.8,7.75c0,4.55-3.7,7.35-8.95,7.35c-5.7,0-8.9-3-9.6-7.5
			H285.02z"/>
		<path d="M327.48,360.68c0,6.95-3.85,13.15-11.3,13.15c-6.75,0-10.95-5.55-10.95-13.1c0-7.15,3.95-13.1,11.2-13.1
			C323.07,347.62,327.48,352.82,327.48,360.68z M307.87,360.73c0,5.95,3.2,10.75,8.5,10.75c5.4,0,8.45-4.45,8.45-10.75
			c0-5.9-3-10.75-8.55-10.75C310.57,349.98,307.87,354.73,307.87,360.73z"/>
		<path d="M333.67,355.02c0-4.2-0.05-6-0.05-6.8h2.45c0.05,0.8,0.1,2.4,0.1,5.6c1.45-3.75,4.65-6,8.7-6.2v2.7
			c-5.2,0.35-8.7,3.95-8.7,9.9v13h-2.5V355.02z"/>
	</g>
</g>
</svg>
